<?xml version="1.0" encoding="utf-8"?>
<!-- Generator: Adobe Illustrator 16.0.3, SVG Export Plug-In . SVG Version: 6.00 Build 0)  -->
<!DOCTYPE svg PUBLIC "-//W3C//DTD SVG 1.1//EN" "http://www.w3.org/Graphics/SVG/1.1/DTD/svg11.dtd">
<svg version="1.1" id="Calque_1" xmlns="http://www.w3.org/2000/svg" xmlns:xlink="http://www.w3.org/1999/xlink" x="0px" y="0px"
	 width="612px" height="612px" viewBox="0 0 612 612" enable-background="new 0 0 612 612" xml:space="preserve">
<rect y="0.00293" fill-rule="evenodd" clip-rule="evenodd" fill="#35393D" width="612" height="611.99414"/>
<g>
	<path fill-rule="evenodd" clip-rule="evenodd" fill="#2FC1CF" d="M162.51221,544.52148
		c-21.05225,0.02344-42.10645,0.16211-63.15723,0.01172c-7.89648-0.05566-14.00293-7.07324-14.01758-15.80664
		c-0.03955-23.17188,0.10938-46.34375,0.12744-69.51758c0.02686-33.7666,0.00439-67.5332,0.00098-101.30078
		c-0.00098-5.93945-1.99414-7.91699-8.10156-7.92578c-14.30127-0.02148-28.60254-0.07324-42.90381,0.01855
		c-5.8418,0.03711-10.96045-1.30664-13.45459-7.08984c-2.55566-5.92188-0.76807-11.2959,3.6709-15.58105
		c10.47559-10.1123,21.13916-20.03125,31.72754-30.02783c59.29688-55.98535,118.57227-111.99316,177.9043-167.94141
		c18.97461-17.89111,38.09766-35.62549,57.15771-53.42578c0.86963-0.81299,1.78857-1.57324,2.70459-2.33594
		c10.29102-8.57471,16.39551-8.54053,26.39453,0.60156c29.01953,26.53467,57.32324,53.8291,85.86719,80.87061
		c52.75977,49.98633,105.54395,99.94678,158.31836,149.9165c7.39941,7.00635,14.83887,13.97314,22.19727,21.02295
		c3.3623,3.21875,5.64063,6.93945,5.15625,11.92676c-0.69043,7.09863-5.70605,11.95996-12.85449,11.99512
		c-14.43359,0.06934-28.86816,0.01465-43.30078,0.0459c-6.02051,0.01367-8.12109,2.13184-8.11914,8.09082
		c0.00977,51.90625,0.02148,103.81152,0.05078,155.71484c0.00098,4.89844,0.26367,9.7998,0.16016,14.69238
		c-0.22168,10.47754-7.76172,16.45703-16.87891,16.26563c-20.11719-0.42188-40.24805-0.17969-60.375-0.20605
		c-0.01367-3.83984-0.00586-7.67676-0.04492-11.51465c-0.25781-26.11523-22.25586-48.59766-48.35059-48.67871
		c-63.6543-0.19141-127.31006-0.16406-190.96582-0.01855c-22.43115,0.0498-42.41113,16.54395-47.53027,38.48828
		C162.22461,529.97949,162.49658,537.25488,162.51221,544.52148z M306.11035,452.4541c27.00684,0,54.01758-0.27734,81.02051,0.09375
		c19.38867,0.26563,38.53516-16.7334,38.51563-37.89844c-0.03906-42.3623-0.02344-84.72656-0.02539-127.08838
		c-0.00098-8.13281-2.94043-15.27344-7.65039-21.68848c-8.47852-11.54443-20.12695-16.52295-34.30371-16.44092
		c-22.24023,0.12793-44.48145-0.04688-66.7207,0.11182c-3.72168,0.02734-5.25-0.44873-5.12695-4.81543
		c0.33887-12.03564,0.08594-24.08936-0.06445-36.13428c-0.0293-2.27148,0.52148-3.33545,2.82129-4.30176
		c10.25684-4.31055,15.37402-15.06104,12.6416-25.79297c-2.48535-9.76123-11.41797-16.26855-21.90967-15.95996
		c-9.2583,0.27197-17.89111,7.50439-19.80225,16.58984c-2.24072,10.64941,2.58838,21.0376,12.03857,25.02979
		c2.54004,1.07275,3.26221,2.26123,3.23096,4.89404c-0.14258,12.17627-0.16748,24.35791,0.0127,36.53369
		c0.04639,3.12646-0.81738,3.979-3.95313,3.95947c-22.76904-0.13965-45.53809-0.04102-68.30713-0.1167
		c-6.42822-0.021-12.7041,0.66455-18.50732,3.52441c-14.72363,7.25586-22.71484,19.2334-23.11279,35.57813
		c-0.46191,18.91943-0.21045,37.85693-0.17871,56.78662c0.04053,24.09082-0.22852,48.19141,0.39209,72.26953
		c0.47559,18.48633,18.34668,34.86621,36.77637,34.86719C251.30176,452.45605,278.70605,452.45605,306.11035,452.4541z"/>
	<path fill-rule="evenodd" clip-rule="evenodd" fill="#FDFDF6" d="M162.51221,544.52148
		c-0.01563-7.2666-0.2876-14.54199,1.3833-21.70898c5.11914-21.94434,25.09912-38.43848,47.53027-38.48828
		c63.65576-0.14551,127.31152-0.17285,190.96582,0.01855c26.09473,0.08105,48.09277,22.56348,48.35059,48.67871
		c0.03906,3.83789,0.03125,7.6748,0.04492,11.51465c-48.83887,0.02637-97.68066,0.06152-146.51953,0.07715
		c-45.13525,0.01367-90.271,0.00586-135.40625,0.00098C166.74512,544.61426,164.62842,544.55469,162.51221,544.52148z"/>
	<path fill-rule="evenodd" clip-rule="evenodd" fill="#FDFDF6" d="M306.11035,452.45508
		c-27.4043,0.00098-54.80859,0.00098-82.21289,0c-18.42969-0.00098-36.30078-16.38086-36.77637-34.86719
		c-0.62061-24.07813-0.35156-48.17871-0.39209-72.26953c-0.03174-18.92969-0.2832-37.86719,0.17871-56.78662
		c0.39795-16.34473,8.38916-28.32227,23.11279-35.57813c5.80322-2.85986,12.0791-3.54541,18.50732-3.52441
		c22.76904,0.07568,45.53809-0.02295,68.30713,0.1167c3.13574,0.01953,3.99951-0.83301,3.95313-3.95947
		c-0.18018-12.17578-0.15527-24.35742-0.0127-36.53369c0.03125-2.63281-0.69092-3.82129-3.23096-4.89404
		c-9.4502-3.99219-14.2793-14.38037-12.03857-25.02979c1.91113-9.08545,10.54395-16.31787,19.80225-16.58984
		c10.4917-0.30859,19.42432,6.19873,21.90967,15.95996c2.73242,10.73193-2.38477,21.48242-12.6416,25.79297
		c-2.2998,0.96631-2.85059,2.03027-2.82129,4.30176c0.15039,12.04492,0.40332,24.09863,0.06445,36.13428
		c-0.12305,4.3667,1.40527,4.84277,5.12695,4.81543c22.23926-0.15869,44.48047,0.01611,66.7207-0.11182
		c14.17676-0.08203,25.8252,4.89648,34.30371,16.44092c4.70996,6.41504,7.64941,13.55566,7.65039,21.68848
		c0.00195,42.36182-0.01367,84.72607,0.02539,127.08838c0.01953,21.16504-19.12695,38.16406-38.51563,37.89844
		C360.12793,452.17676,333.11719,452.4541,306.11035,452.45508z M282.58838,329.2041
		c-0.05127-16.17285-12.07666-28.4126-27.92773-28.4248c-14.99902-0.01123-28.72559,14.10059-28.60596,29.41016
		c0.11475,14.60059,12.98242,27.08887,27.79297,26.97559C270.5249,357.04102,282.63916,345.25391,282.58838,329.2041z
		 M386.49609,330.22754c0.20508-15.16992-12.99512-29.22021-27.55664-29.33203
		c-15.29199-0.11523-27.83984,12.41992-28.04883,28.02051c-0.20508,15.30176,11.79102,28.02148,26.67383,28.28223
		C373.34277,357.47461,386.29102,345.40332,386.49609,330.22754z M306.80566,420.07031
		c3.61426,0.49512,8.25195-0.75977,12.8877-1.75879c11.92285-2.57031,21.66797-8.87598,29.71387-17.90039
		c2.18262-2.44824,3.04688-5.32715,1.23926-8.37793c-1.67871-2.83496-4.19824-4.21094-7.61328-4.02441
		c-2.77441,0.15234-4.56445,1.90625-6.50391,3.47656c-21.52051,17.41016-46.81494,15.49805-62.66748-1.40332
		c-1.24561-1.32617-2.72754-2.48633-4.72559-2.7002c-3.24805-0.3457-5.75195,0.8916-7.35986,3.63086
		c-1.91895,3.26563-1.12646,6.28613,1.18457,9.12988C273.95605,413.67969,288.27246,420.05078,306.80566,420.07031z"/>
	<path fill-rule="evenodd" clip-rule="evenodd" fill="#2FC1CF" d="M282.58838,329.2041
		c0.05078,16.0498-12.06348,27.83691-28.74072,27.96094c-14.81055,0.11328-27.67822-12.375-27.79297-26.97559
		c-0.11963-15.30957,13.60693-29.42139,28.60596-29.41016C270.51172,300.7915,282.53711,313.03125,282.58838,329.2041z"/>
	<path fill-rule="evenodd" clip-rule="evenodd" fill="#2FC1CF" d="M386.49609,330.22754
		c-0.20508,15.17578-13.15332,27.24707-28.93164,26.9707c-14.88281-0.26074-26.87891-12.98047-26.67383-28.28223
		c0.20898-15.60059,12.75684-28.13574,28.04883-28.02051C373.50098,301.00732,386.70117,315.05762,386.49609,330.22754z"/>
	<path fill-rule="evenodd" clip-rule="evenodd" fill="#2FC1CF" d="M306.80566,420.07031
		c-18.5332-0.01953-32.84961-6.39063-43.84473-19.92773c-2.31104-2.84375-3.10352-5.86426-1.18457-9.12988
		c1.60791-2.73926,4.11182-3.97656,7.35986-3.63086c1.99805,0.21387,3.47998,1.37402,4.72559,2.7002
		c15.85254,16.90137,41.14697,18.81348,62.66748,1.40332c1.93945-1.57031,3.72949-3.32422,6.50391-3.47656
		c3.41504-0.18652,5.93457,1.18945,7.61328,4.02441c1.80762,3.05078,0.94336,5.92969-1.23926,8.37793
		c-8.0459,9.02441-17.79102,15.33008-29.71387,17.90039C315.05762,419.31055,310.41992,420.56543,306.80566,420.07031z"/>
</g>
</svg>
